<?xml version="1.0" encoding="UTF-8" standalone="no"?>
<svg width="54.5042mm" height="10.0542mm"
 xmlns="http://www.w3.org/2000/svg" xmlns:xlink="http://www.w3.org/1999/xlink"  version="1.2" baseProfile="tiny">
<desc>Created by HiQPdf</desc>
<defs>
</defs>
<g fill="none" stroke="black" stroke-width="1" fill-rule="evenodd" stroke-linecap="square" stroke-linejoin="bevel" >

<g fill="#000000" fill-opacity="1" stroke="#000000" stroke-opacity="1" stroke-width="1" stroke-linecap="square" stroke-linejoin="miter" stroke-miterlimit="2" transform="matrix(1,0,0,1,0,0)"
>
</g>

<g fill="#000000" fill-opacity="1" stroke="#000000" stroke-opacity="1" stroke-width="1" stroke-linecap="square" stroke-linejoin="miter" stroke-miterlimit="2" transform="matrix(1,0,0,1,0,0)"
>
</g>

<g fill="#000000" fill-opacity="1" stroke="#000000" stroke-opacity="1" stroke-width="1" stroke-linecap="square" stroke-linejoin="miter" stroke-miterlimit="2" transform="matrix(1,0,0,1,0,0)"
>
</g>

<g fill="#000000" fill-opacity="1" stroke="none" transform="matrix(1,0,0,1,0,0)"
>
<path vector-effect="none" fill-rule="evenodd" d="M10,0 L28,0 C33.5229,0 38,4.47715 38,10 L38,28 C38,33.5229 33.5229,38 28,38 L10,38 C4.47715,38 0,33.5229 0,28 L0,10 C0,4.47715 4.47715,0 10,0 "/>
</g>

<g fill="#000000" fill-opacity="1" stroke="none" transform="matrix(1,0,0,1,0,0)"
>
<path vector-effect="none" fill-rule="evenodd" d="M52,0 L70,0 C75.5229,0 80,4.47715 80,10 L80,28 C80,33.5229 75.5229,38 70,38 L52,38 C46.4771,38 42,33.5229 42,28 L42,10 C42,4.47715 46.4771,0 52,0 "/>
</g>

<g fill="#000000" fill-opacity="1" stroke="none" transform="matrix(1,0,0,1,0,0)"
>
<path vector-effect="none" fill-rule="evenodd" d="M94,0 L112,0 C117.523,0 122,4.47715 122,10 L122,28 C122,33.5229 117.523,38 112,38 L94,38 C88.4771,38 84,33.5229 84,28 L84,10 C84,4.47715 88.4771,0 94,0 "/>
</g>

<g fill="#000000" fill-opacity="1" stroke="none" transform="matrix(1,0,0,1,0,0)"
>
<path vector-effect="none" fill-rule="evenodd" d="M136,0 L154,0 C159.523,0 164,4.47715 164,10 L164,28 C164,33.5229 159.523,38 154,38 L136,38 C130.477,38 126,33.5229 126,28 L126,10 C126,4.47715 130.477,0 136,0 "/>
</g>

<g fill="#000000" fill-opacity="1" stroke="none" transform="matrix(1,0,0,1,0,0)"
>
<path vector-effect="none" fill-rule="evenodd" d="M178,0 L196,0 C201.523,0 206,4.47715 206,10 L206,28 C206,33.5229 201.523,38 196,38 L178,38 C172.477,38 168,33.5229 168,28 L168,10 C168,4.47715 172.477,0 178,0 "/>
</g>

<g fill="#000000" fill-opacity="1" stroke="#000000" stroke-opacity="1" stroke-width="1" stroke-linecap="square" stroke-linejoin="miter" stroke-miterlimit="2" transform="matrix(1,0,0,1,0,0)"
>
</g>

<g fill="#000000" fill-opacity="1" stroke="#000000" stroke-opacity="1" stroke-width="1" stroke-linecap="square" stroke-linejoin="miter" stroke-miterlimit="2" transform="matrix(1,0,0,1,0,0)"
>
</g>

<g fill="#000000" fill-opacity="1" stroke="#000000" stroke-opacity="1" stroke-width="1" stroke-linecap="square" stroke-linejoin="miter" stroke-miterlimit="2" transform="matrix(1,0,0,1,0,0)"
>
</g>
</g>
</svg>
